<?xml version="1.0" standalone="no"?>
<!DOCTYPE svg PUBLIC "-//W3C//DTD SVG 20010904//EN"
 "http://www.w3.org/TR/2001/REC-SVG-20010904/DTD/svg10.dtd">
<svg version="1.0" xmlns="http://www.w3.org/2000/svg"
 width="500.000000pt" height="500.000000pt" viewBox="0 0 500.000000 500.000000"
 preserveAspectRatio="xMidYMid meet">
<metadata>
Created by potrace 1.16, written by Peter Selinger 2001-2019
</metadata>
<g transform="translate(0.000000,500.000000) scale(0.100000,-0.100000)"
fill="#000000" stroke="none">
<path d="M2220 3408 c-69 -216 -89 -268 -104 -268 -6 0 -49 35 -95 78 l-83 77
17 40 c20 46 16 112 -10 151 -22 35 -38 19 -25 -26 14 -50 12 -117 -4 -148 -8
-15 -28 -40 -46 -57 -37 -35 -33 -40 -91 98 -38 89 -59 119 -59 83 0 -15 98
-305 124 -368 17 -39 36 -58 36 -36 0 7 -9 47 -21 88 l-20 75 35 32 c20 18 40
33 45 33 5 0 40 -34 77 -75 102 -114 140 -104 190 49 l28 86 72 0 72 0 38 -80
c36 -77 59 -109 70 -97 3 3 -10 43 -29 88 -32 77 -34 86 -20 102 15 16 14 17
-5 17 -18 0 -32 21 -74 110 -29 61 -56 110 -60 110 -4 0 -30 -73 -58 -162z"/>
<path d="M2827 3479 c-20 -12 -47 -61 -47 -87 0 -21 28 -78 83 -166 20 -33 37
-68 37 -78 0 -10 -13 -32 -29 -50 -24 -27 -36 -33 -69 -33 -75 0 -111 55 -85
130 18 53 10 70 -18 36 -25 -31 -25 -95 1 -131 39 -55 147 -65 196 -19 50 46
41 99 -35 229 -56 94 -58 105 -22 140 35 35 68 38 100 8 21 -19 23 -28 18 -75
-5 -47 -3 -54 11 -51 26 5 37 51 22 88 -24 57 -111 89 -163 59z"/>
<path d="M3162 3322 c-11 -11 -34 -41 -52 -68 -45 -67 -70 -93 -84 -88 -6 2
-11 -7 -12 -24 -1 -16 -14 -49 -31 -73 -17 -24 -36 -54 -42 -67 -12 -22 -11
-23 7 -13 15 8 75 74 109 121 2 2 24 -7 49 -20 32 -18 60 -25 100 -25 52 0 58
3 91 39 33 35 35 42 31 88 -4 39 -12 57 -39 85 -28 30 -83 63 -104 63 -3 0
-13 -8 -23 -18z m99 -41 c31 -31 39 -46 39 -75 0 -48 -22 -89 -55 -104 -51
-23 -149 -10 -161 22 -8 22 105 196 128 196 6 0 28 -17 49 -39z"/>
<path d="M1470 3303 c-59 -22 -68 -95 -20 -161 58 -81 168 -108 229 -56 l30
25 8 -28 c18 -73 0 -134 -49 -159 -85 -44 -176 18 -256 173 -39 78 -59 94 -48
41 20 -100 124 -226 205 -248 37 -10 48 -8 87 11 60 29 94 80 94 142 0 62 -19
105 -71 162 -66 72 -160 116 -209 98z m76 -33 c31 -12 144 -124 144 -144 0 -7
-9 -21 -20 -31 -26 -23 -96 -16 -140 15 -63 45 -110 137 -83 163 10 10 68 8
99 -3z"/>
<path d="M1138 2995 c-34 -19 -68 -74 -68 -112 0 -36 42 -78 87 -88 21 -4 61
1 112 14 114 30 143 28 175 -10 30 -35 32 -58 11 -99 -29 -56 -93 -67 -143
-25 -49 41 -85 30 -39 -12 55 -51 95 -52 155 -6 44 33 66 81 58 125 -15 81
-96 106 -227 69 -41 -12 -87 -21 -102 -21 -37 0 -67 33 -67 73 0 59 55 88 115
62 46 -18 45 -18 45 -1 0 19 -39 46 -65 46 -11 -1 -32 -7 -47 -15z"/>
<path d="M3520 2969 c-63 -18 -345 -111 -360 -120 -32 -18 30 -9 107 16 l78
25 28 -33 c61 -71 62 -77 17 -167 -43 -86 -52 -123 -24 -99 9 7 29 36 45 65
29 51 65 91 78 87 3 -2 6 9 6 25 0 15 21 64 48 109 26 45 47 87 47 93 0 12
-22 12 -70 -1z"/>
<path d="M2357 2689 c-183 -224 -284 -404 -308 -546 -22 -128 35 -304 137
-423 52 -61 52 -60 8 25 -77 147 -99 320 -55 436 32 85 154 276 245 384 l25
30 28 -34 c100 -122 203 -280 239 -368 48 -116 26 -310 -52 -451 -19 -34 -34
-65 -34 -68 0 -18 94 110 119 161 50 103 64 166 59 275 -3 91 -6 102 -50 193
-47 96 -111 199 -198 314 -48 63 -107 133 -112 132 -2 0 -25 -27 -51 -60z"/>
<path d="M1602 2467 c-65 -258 -9 -530 148 -717 48 -57 186 -164 200 -155 6 3
10 1 10 -5 0 -6 5 -8 10 -5 6 3 10 2 10 -4 0 -13 66 -47 137 -72 60 -20 69
-17 21 7 -18 9 -64 37 -103 63 -38 25 -74 44 -80 42 -5 -1 -7 1 -3 5 4 4 -27
44 -70 88 -83 87 -150 202 -177 306 -19 72 -30 229 -21 313 7 65 9 67 35 67
37 0 148 -38 196 -68 22 -13 59 -43 83 -66 46 -44 54 -42 69 13 5 21 -3 34
-53 80 -91 86 -247 151 -361 151 -40 0 -41 -1 -51 -43z"/>
<path d="M3049 2491 c-87 -23 -203 -89 -258 -145 l-44 -45 13 -40 13 -40 55
50 c76 69 202 129 273 129 25 0 28 -4 35 -47 4 -25 4 -101 2 -167 -8 -180 -53
-301 -157 -426 -78 -93 -152 -155 -267 -226 -80 -49 -30 -38 91 21 270 130
415 339 440 631 7 81 -6 215 -26 285 -12 38 -13 39 -58 38 -25 0 -76 -8 -112
-18z"/>
<path d="M1460 1945 c-76 -19 -140 -47 -208 -94 -87 -59 -88 -62 -58 -118 51
-93 177 -222 280 -287 62 -40 164 -82 231 -97 81 -18 249 -13 337 10 78 20
224 77 232 90 3 4 -28 -1 -67 -11 -294 -75 -545 -27 -742 143 -48 42 -157 159
-162 176 -5 13 95 70 160 93 32 11 84 23 116 26 l58 7 -16 38 c-15 37 -18 39
-61 38 -25 0 -70 -7 -100 -14z"/>
<path d="M3205 1930 c-8 -16 -15 -33 -15 -38 0 -4 33 -13 74 -19 73 -10 162
-45 223 -86 18 -12 33 -25 33 -29 0 -18 -128 -152 -192 -201 -90 -68 -156
-101 -250 -126 -143 -38 -297 -36 -465 7 -40 10 -73 17 -73 15 0 -8 105 -54
179 -77 160 -51 340 -51 483 -2 97 34 211 108 295 192 70 70 153 184 153 210
0 18 -72 77 -140 113 -65 35 -193 71 -251 71 -32 0 -41 -5 -54 -30z"/>
</g>
</svg>
